<?xml version="1.0" encoding="UTF-8"?><svg id="Layer_2" xmlns="http://www.w3.org/2000/svg" viewBox="0 0 586.26 98.13"><defs><style>.cls-1{fill:#695557;}</style></defs><g id="Layer_1-2"><path class="cls-1" d="M319.12,46.45v25.02h-3.39v-25.02h3.39ZM325.56,60.43h-7.37v-2.94h7.09c1.41,0,2.49-.36,3.25-1.07.76-.71,1.14-1.73,1.14-3.05,0-1.25-.4-2.21-1.19-2.89-.8-.68-1.93-1.02-3.41-1.02h-7.47v-3.01h7.68c2.45,0,4.37.59,5.76,1.76,1.4,1.18,2.09,2.79,2.09,4.84,0,1.55-.38,2.83-1.12,3.86-.75,1.03-1.85,1.77-3.3,2.23v-.45c1.61.39,2.83,1.1,3.65,2.13.82,1.03,1.23,2.35,1.23,3.96,0,1.38-.32,2.58-.95,3.58-.63,1-1.55,1.77-2.75,2.3-1.2.53-2.62.8-4.26.8h-8.03v-3.01h7.96c1.45,0,2.57-.36,3.36-1.07.78-.72,1.18-1.72,1.18-3.01s-.4-2.21-1.19-2.91c-.8-.69-1.91-1.04-3.34-1.04Z"/><path class="cls-1" d="M348.98,54.55h3.22v16.92h-2.91l-.35-2.56c-.48.88-1.25,1.59-2.28,2.15-1.04.55-2.18.83-3.43.83-1.96,0-3.48-.62-4.55-1.85-1.07-1.23-1.61-2.89-1.61-4.97v-10.52h3.25v9.45c0,1.8.36,3.09,1.09,3.86.73.77,1.71,1.16,2.96,1.16,1.5,0,2.64-.47,3.43-1.4.78-.93,1.18-2.31,1.18-4.14v-8.93Z"/><path class="cls-1" d="M355.18,66.56h3.11c0,.85.31,1.53.93,2.02.62.5,1.46.74,2.53.74,1.15,0,2.04-.23,2.66-.67.62-.45.93-1.06.93-1.82,0-.55-.17-1.01-.5-1.38-.33-.37-.94-.67-1.82-.9l-2.98-.69c-1.5-.37-2.61-.93-3.34-1.7s-1.09-1.76-1.09-3.01c0-1.04.27-1.94.81-2.7s1.29-1.35,2.25-1.76c.96-.42,2.06-.62,3.3-.62s2.32.22,3.24.66c.91.44,1.63,1.05,2.15,1.83.52.78.79,1.72.81,2.8h-3.11c-.02-.88-.31-1.56-.86-2.04-.55-.48-1.33-.73-2.32-.73s-1.8.22-2.35.66c-.55.44-.83,1.04-.83,1.8,0,1.13.83,1.9,2.49,2.32l2.98.73c1.43.32,2.5.85,3.22,1.57s1.07,1.71,1.07,2.96c0,1.06-.29,1.99-.87,2.79s-1.37,1.41-2.37,1.83c-1,.43-2.19.64-3.55.64-1.98,0-3.56-.48-4.74-1.45s-1.76-2.26-1.76-3.88Z"/><path class="cls-1" d="M373.66,50.54c-.58,0-1.08-.21-1.51-.64-.43-.43-.64-.93-.64-1.51s.21-1.11.64-1.52c.43-.42.93-.62,1.51-.62s1.11.21,1.52.62c.42.42.62.92.62,1.52s-.21,1.08-.62,1.51c-.41.43-.92.64-1.52.64ZM372.07,71.47v-16.92h3.25v16.92h-3.25Z"/><path class="cls-1" d="M383.28,71.47h-3.25v-16.92h2.94l.35,2.6c.53-.97,1.3-1.72,2.3-2.27,1-.54,2.1-.81,3.3-.81,2.21,0,3.85.63,4.91,1.9,1.06,1.27,1.59,2.99,1.59,5.16v10.35h-3.25v-9.62c0-1.71-.37-2.94-1.11-3.69s-1.73-1.12-2.98-1.12c-1.52,0-2.7.5-3.55,1.49-.84.99-1.26,2.32-1.26,3.98v8.96Z"/><path class="cls-1" d="M407.22,71.89c-1.64,0-3.09-.38-4.36-1.12s-2.26-1.79-2.98-3.11-1.07-2.87-1.07-4.62.35-3.33,1.06-4.67c.7-1.34,1.67-2.39,2.91-3.15,1.23-.76,2.67-1.14,4.31-1.14s3.02.35,4.2,1.04c1.19.69,2.11,1.66,2.77,2.91.66,1.25.99,2.71.99,4.39v1.21l-14.5.03.07-2.18h11.18c0-1.41-.43-2.54-1.28-3.39-.85-.85-2-1.28-3.43-1.28-1.08,0-2.01.24-2.79.71-.77.47-1.36,1.17-1.77,2.08-.4.91-.61,2-.61,3.27,0,2.03.46,3.59,1.38,4.69.92,1.1,2.25,1.64,3.98,1.64,1.27,0,2.31-.25,3.11-.76.81-.51,1.35-1.25,1.63-2.21h3.05c-.42,1.8-1.3,3.2-2.66,4.19-1.36.99-3.09,1.49-5.19,1.49Z"/><path class="cls-1" d="M417.29,66.56h3.11c0,.85.31,1.53.93,2.02.62.5,1.46.74,2.53.74,1.15,0,2.04-.23,2.66-.67.62-.45.93-1.06.93-1.82,0-.55-.17-1.01-.5-1.38-.33-.37-.94-.67-1.82-.9l-2.98-.69c-1.5-.37-2.61-.93-3.34-1.7s-1.09-1.76-1.09-3.01c0-1.04.27-1.94.81-2.7s1.29-1.35,2.25-1.76c.96-.42,2.06-.62,3.3-.62s2.32.22,3.24.66c.91.44,1.63,1.05,2.15,1.83.52.78.79,1.72.81,2.8h-3.11c-.02-.88-.31-1.56-.86-2.04-.55-.48-1.33-.73-2.32-.73s-1.8.22-2.35.66c-.55.44-.83,1.04-.83,1.8,0,1.13.83,1.9,2.49,2.32l2.98.73c1.43.32,2.5.85,3.22,1.57s1.07,1.71,1.07,2.96c0,1.06-.29,1.99-.87,2.79s-1.37,1.41-2.37,1.83c-1,.43-2.19.64-3.55.64-1.98,0-3.56-.48-4.74-1.45s-1.76-2.26-1.76-3.88Z"/><path class="cls-1" d="M432.8,66.56h3.11c0,.85.31,1.53.93,2.02.62.5,1.46.74,2.53.74,1.15,0,2.04-.23,2.66-.67.62-.45.93-1.06.93-1.82,0-.55-.17-1.01-.5-1.38-.33-.37-.94-.67-1.82-.9l-2.98-.69c-1.5-.37-2.61-.93-3.34-1.7s-1.09-1.76-1.09-3.01c0-1.04.27-1.94.81-2.7s1.29-1.35,2.25-1.76c.96-.42,2.06-.62,3.3-.62s2.32.22,3.24.66c.91.44,1.63,1.05,2.15,1.83.52.78.79,1.72.81,2.8h-3.11c-.02-.88-.31-1.56-.86-2.04-.55-.48-1.33-.73-2.32-.73s-1.8.22-2.35.66c-.55.44-.83,1.04-.83,1.8,0,1.13.83,1.9,2.49,2.32l2.98.73c1.43.32,2.5.85,3.22,1.57s1.07,1.71,1.07,2.96c0,1.06-.29,1.99-.87,2.79s-1.37,1.41-2.37,1.83c-1,.43-2.19.64-3.55.64-1.98,0-3.56-.48-4.74-1.45s-1.76-2.26-1.76-3.88Z"/><path class="cls-1" d="M463.07,46.45v25.02h-3.39v-25.02h3.39ZM469.41,62.55h-7.09v-3.05h6.37c1.68,0,2.98-.46,3.88-1.37.9-.91,1.35-2.14,1.35-3.69s-.45-2.79-1.35-3.65c-.9-.87-2.15-1.3-3.74-1.3h-7.27v-3.05h7.85c1.64,0,3.06.34,4.26,1,1.2.67,2.13,1.6,2.8,2.8.67,1.2,1,2.61,1,4.22s-.34,2.93-1,4.15c-.67,1.22-1.6,2.18-2.8,2.87-1.2.69-2.62,1.04-4.26,1.04Z"/><path class="cls-1" d="M485.01,71.89c-1.8,0-3.21-.47-4.24-1.42-1.03-.95-1.54-2.18-1.54-3.7s.55-2.79,1.66-3.72c1.11-.93,2.65-1.48,4.64-1.64l5.33-.42v-.48c0-.95-.17-1.7-.52-2.27-.35-.56-.82-.97-1.42-1.21-.6-.24-1.28-.36-2.04-.36-1.36,0-2.42.28-3.17.85-.75.57-1.12,1.37-1.12,2.4h-2.84c0-1.18.3-2.2.9-3.08.6-.88,1.45-1.56,2.54-2.04,1.1-.48,2.37-.73,3.82-.73s2.64.25,3.69.74c1.05.5,1.87,1.25,2.46,2.25s.88,2.27.88,3.79v10.62h-2.77l-.35-2.73c-.44.97-1.19,1.74-2.27,2.3-1.07.56-2.29.85-3.65.85ZM485.95,69.36c1.55,0,2.76-.47,3.63-1.4.88-.93,1.31-2.2,1.31-3.79v-.9l-4.33.35c-1.43.14-2.46.47-3.1,1s-.95,1.21-.95,2.04c0,.9.31,1.57.92,2.02.61.45,1.45.67,2.51.67Z"/><path class="cls-1" d="M508.23,54.41v2.98h-1.45c-1.55,0-2.76.44-3.65,1.33s-1.33,2.15-1.33,3.79v8.96h-3.25v-16.89h3.05l.28,3.39h-.31c.23-1.11.78-2.01,1.66-2.72.88-.7,1.97-1.06,3.29-1.06.3,0,.58.02.85.05.27.03.56.09.88.16Z"/><path class="cls-1" d="M510.17,54.55h9.9v2.73h-9.9v-2.73ZM516.75,71.47h-3.25v-22.22h3.25v22.22Z"/><path class="cls-1" d="M526.23,71.47h-3.25v-16.92h2.94l.35,2.6c.53-.97,1.3-1.72,2.3-2.27,1-.54,2.1-.81,3.3-.81,2.22,0,3.85.63,4.92,1.9,1.06,1.27,1.59,2.99,1.59,5.16v10.35h-3.25v-9.62c0-1.71-.37-2.94-1.11-3.69s-1.73-1.12-2.98-1.12c-1.52,0-2.7.5-3.55,1.49-.84.99-1.26,2.32-1.26,3.98v8.96Z"/><path class="cls-1" d="M550.17,71.89c-1.64,0-3.09-.38-4.36-1.12s-2.26-1.79-2.98-3.11c-.72-1.33-1.07-2.87-1.07-4.62s.35-3.33,1.05-4.67c.7-1.34,1.67-2.39,2.91-3.15s2.67-1.14,4.31-1.14,3.02.35,4.21,1.04c1.19.69,2.11,1.66,2.77,2.91.66,1.25.99,2.71.99,4.39v1.21l-14.5.03.07-2.18h11.18c0-1.41-.43-2.54-1.28-3.39s-2-1.28-3.43-1.28c-1.08,0-2.01.24-2.79.71-.77.47-1.36,1.17-1.76,2.08-.4.91-.61,2-.61,3.27,0,2.03.46,3.59,1.38,4.69.92,1.1,2.25,1.64,3.98,1.64,1.27,0,2.31-.25,3.11-.76.81-.51,1.35-1.25,1.63-2.21h3.04c-.42,1.8-1.3,3.2-2.66,4.19-1.36.99-3.09,1.49-5.19,1.49Z"/><path class="cls-1" d="M571.32,54.41v2.98h-1.45c-1.55,0-2.76.44-3.65,1.33-.89.89-1.33,2.15-1.33,3.79v8.96h-3.25v-16.89h3.04l.28,3.39h-.31c.23-1.11.78-2.01,1.66-2.72.88-.7,1.97-1.06,3.29-1.06.3,0,.58.02.85.05.27.03.56.09.88.16Z"/><path class="cls-1" d="M572.98,66.56h3.11c0,.85.31,1.53.93,2.02.62.5,1.46.74,2.53.74,1.15,0,2.04-.23,2.66-.67.62-.45.93-1.06.93-1.82,0-.55-.17-1.01-.5-1.38-.33-.37-.94-.67-1.82-.9l-2.98-.69c-1.5-.37-2.61-.93-3.34-1.7s-1.09-1.76-1.09-3.01c0-1.04.27-1.94.81-2.7.54-.76,1.29-1.35,2.25-1.76.96-.42,2.06-.62,3.31-.62s2.32.22,3.23.66,1.63,1.05,2.15,1.83c.52.78.79,1.72.81,2.8h-3.11c-.02-.88-.31-1.56-.87-2.04-.55-.48-1.33-.73-2.32-.73s-1.8.22-2.35.66c-.55.44-.83,1.04-.83,1.8,0,1.13.83,1.9,2.49,2.32l2.98.73c1.43.32,2.5.85,3.22,1.57s1.07,1.71,1.07,2.96c0,1.06-.29,1.99-.86,2.79-.58.8-1.37,1.41-2.37,1.83-1,.43-2.19.64-3.55.64-1.98,0-3.56-.48-4.74-1.45s-1.76-2.26-1.76-3.88Z"/><path class="cls-1" d="M129.28,75.71h-10.68v-17.4c-.64,9.82-7.26,18.79-18.58,18.79-12.71,0-18.69-9.4-18.69-19.97V20.82h10.68v33.21c0,8.54,5.45,12.92,12.6,12.92,8.22,0,13.99-5.98,13.99-13.99V20.82h10.68v54.88Z"/><path class="cls-1" d="M136.96,0h11.11v12.6h-11.11V0ZM137.18,20.82h10.68v54.88h-10.68V20.82Z"/><path class="cls-1" d="M156.72,20.82h10.68v19.86c1.49-12.17,8.54-21.25,21.25-21.25,13.77,0,24.03,12.39,24.03,28.83s-10.04,28.83-24.03,28.83c-11,0-19.75-7.69-21.25-20.29v41.32h-10.68V20.82ZM166.97,48.26c0,12.17,7.9,19.11,17.51,19.11s17.3-7.69,17.3-19.11-7.58-19.11-17.51-19.11-17.3,8.44-17.3,19.11Z"/><path class="cls-1" d="M213.52,48.26c0-16.76,12.17-28.83,28.94-28.83s28.94,12.07,28.94,28.83-12.49,28.83-28.94,28.83-28.94-11.96-28.94-28.83ZM242.46,67.38c10.36,0,18.05-7.69,18.05-19.11s-7.69-19.11-18.05-19.11-18.05,8.12-18.05,19.11,7.69,19.11,18.05,19.11Z"/><rect class="cls-1" x="275.52" y="61.86" width="11.11" height="12.6"/><path class="cls-1" d="M41.57,59.7c.06.03.12.05.18.08-2.07-1.89-3.4-4.83-3.4-8.14,0-5.69,3.94-10.31,8.81-10.31s8.81,4.61,8.81,10.31-3.76,10.08-8.46,10.3c16.3,5.06,22.98-2.64,25.25-6.64,2.11-4.73,3.29-9.97,3.29-15.49C76.04,18.82,59.02,1.79,38.02,1.79S0,18.82,0,39.81s17.02,38.02,38.02,38.02c4.81,0,9.41-.9,13.65-2.53,6.55,1.23,15.83,2.16,28.78,1.98l-.07-9.81c-31.83,1.72-38.81-7.78-38.81-7.78ZM28.13,53.67c0,4.67,1.64,8.95,4.37,12.31-12.12-2.54-21.22-13.29-21.22-26.17,0-14.77,11.97-26.74,26.74-26.74s26.74,11.97,26.74,26.74c0,1.31-.1,2.59-.28,3.84-3.41-5.71-9.66-9.54-16.8-9.54-10.8,0-19.56,8.76-19.56,19.56Z"/></g></svg>