<?xml version="1.0" encoding="UTF-8"?><svg id="Layer_2" xmlns="http://www.w3.org/2000/svg" viewBox="0 0 563.91 193.06"><defs><style>.cls-1{fill:#dffa61;}</style></defs><g id="Layer_1-2"><path class="cls-1" d="M254.34,148.95h-21.01v-34.24c-1.26,19.33-14.29,36.97-36.55,36.97-25,0-36.76-18.49-36.76-39.28V40.97h21.01v65.33c0,16.81,10.71,25.42,24.79,25.42,16.18,0,27.52-11.76,27.52-27.52v-63.23h21.01v107.98Z"/><path class="cls-1" d="M269.47,0h21.85v24.79h-21.85V0ZM269.89,40.97h21.01v107.98h-21.01V40.97Z"/><path class="cls-1" d="M308.33,40.97h21.01v39.07c2.94-23.95,16.81-41.81,41.81-41.81,27.1,0,47.27,24.37,47.27,56.72s-19.75,56.72-47.27,56.72c-21.64,0-38.86-15.13-41.81-39.91v81.3h-21.01V40.97ZM328.5,94.96c0,23.95,15.55,37.6,34.45,37.6s34.03-15.13,34.03-37.6-14.92-37.6-34.45-37.6-34.03,16.6-34.03,37.6Z"/><path class="cls-1" d="M420.09,94.96c0-32.98,23.95-56.72,56.93-56.72s56.93,23.74,56.93,56.72-24.58,56.72-56.93,56.72-56.93-23.53-56.93-56.72ZM477.02,132.56c20.38,0,35.5-15.13,35.5-37.6s-15.13-37.6-35.5-37.6-35.5,15.97-35.5,37.6,15.13,37.6,35.5,37.6Z"/><rect class="cls-1" x="542.06" y="121.72" width="21.85" height="24.79"/><path class="cls-1" d="M81.79,117.45c.12.05.24.1.36.15-4.07-3.71-6.7-9.5-6.7-16.01,0-11.2,7.76-20.28,17.33-20.28s17.33,9.08,17.33,20.28-7.39,19.84-16.65,20.26c32.07,9.95,45.21-5.19,49.67-13.06,4.16-9.31,6.47-19.61,6.47-30.47C149.61,37.02,116.12,3.53,74.8,3.53S0,37.02,0,78.33s33.49,74.8,74.8,74.8c9.47,0,18.52-1.76,26.86-4.97,12.89,2.43,31.14,4.25,56.62,3.89l-.13-19.3c-62.61,3.39-76.37-15.3-76.37-15.3ZM55.35,105.59c0,9.18,3.22,17.61,8.59,24.23-23.85-5.01-41.75-26.15-41.75-51.49,0-29.06,23.56-52.62,52.62-52.62s52.62,23.56,52.62,52.62c0,2.57-.19,5.09-.55,7.56-6.72-11.24-19-18.78-33.05-18.78-21.25,0-38.48,17.23-38.48,38.48Z"/></g></svg>