<?xml version="1.0" encoding="UTF-8"?><svg id="Layer_2" xmlns="http://www.w3.org/2000/svg" viewBox="0 0 286.62 98.13"><defs><style>.cls-1{fill:#695557;}</style></defs><g id="Layer_1-2"><path class="cls-1" d="M129.28,75.71h-10.68v-17.4c-.64,9.82-7.26,18.79-18.58,18.79-12.71,0-18.69-9.4-18.69-19.97V20.82h10.68v33.21c0,8.54,5.45,12.92,12.6,12.92,8.22,0,13.99-5.98,13.99-13.99V20.82h10.68v54.88Z"/><path class="cls-1" d="M136.96,0h11.11v12.6h-11.11V0ZM137.18,20.82h10.68v54.88h-10.68V20.82Z"/><path class="cls-1" d="M156.72,20.82h10.68v19.86c1.49-12.17,8.54-21.25,21.25-21.25,13.77,0,24.03,12.39,24.03,28.83s-10.04,28.83-24.03,28.83c-11,0-19.75-7.69-21.25-20.29v41.32h-10.68V20.82ZM166.97,48.26c0,12.17,7.9,19.11,17.51,19.11s17.3-7.69,17.3-19.11-7.58-19.11-17.51-19.11-17.3,8.44-17.3,19.11Z"/><path class="cls-1" d="M213.52,48.26c0-16.76,12.17-28.83,28.94-28.83s28.94,12.07,28.94,28.83-12.49,28.83-28.94,28.83-28.94-11.96-28.94-28.83ZM242.46,67.38c10.36,0,18.05-7.69,18.05-19.11s-7.69-19.11-18.05-19.11-18.05,8.12-18.05,19.11,7.69,19.11,18.05,19.11Z"/><rect class="cls-1" x="275.52" y="61.86" width="11.11" height="12.6"/><path class="cls-1" d="M41.57,59.7c.06.03.12.05.18.08-2.07-1.89-3.4-4.83-3.4-8.14,0-5.69,3.94-10.31,8.81-10.31s8.81,4.61,8.81,10.31-3.76,10.08-8.46,10.3c16.3,5.06,22.98-2.64,25.25-6.64,2.11-4.73,3.29-9.97,3.29-15.49C76.04,18.82,59.02,1.79,38.02,1.79S0,18.82,0,39.81s17.02,38.02,38.02,38.02c4.81,0,9.41-.9,13.65-2.53,6.55,1.23,15.83,2.16,28.78,1.98l-.07-9.81c-31.83,1.72-38.81-7.78-38.81-7.78ZM28.13,53.67c0,4.67,1.64,8.95,4.37,12.31-12.12-2.54-21.22-13.29-21.22-26.17,0-14.77,11.97-26.74,26.74-26.74s26.74,11.97,26.74,26.74c0,1.31-.1,2.59-.28,3.84-3.41-5.71-9.66-9.54-16.8-9.54-10.8,0-19.56,8.76-19.56,19.56Z"/></g></svg>