<?xml version="1.0" encoding="UTF-8"?><svg id="Layer_2" xmlns="http://www.w3.org/2000/svg" viewBox="0 0 59.88 59.88"><defs><style>.cls-1{fill:#ddf861;}.cls-2{fill:#695557;}</style></defs><g id="Layer_1-2"><circle class="cls-1" cx="29.94" cy="29.94" r="29.94"/><path class="cls-2" d="M39.23,18.61c-1.14,0-2.06.92-2.06,2.06s.92,2.06,2.06,2.06,2.06-.92,2.06-2.06-.92-2.06-2.06-2.06Z"/><path class="cls-2" d="M30.08,21.25c-4.77,0-8.65,3.88-8.65,8.65s3.88,8.65,8.65,8.65,8.65-3.88,8.65-8.65-3.88-8.65-8.65-8.65ZM30.08,35.44c-3.05,0-5.54-2.48-5.54-5.54s2.48-5.54,5.54-5.54,5.54,2.48,5.54,5.54-2.48,5.54-5.54,5.54Z"/><path class="cls-2" d="M36.95,47.45h-14.02c-5.81,0-10.54-4.73-10.54-10.54v-14.02c0-5.81,4.73-10.54,10.54-10.54h14.02c5.81,0,10.55,4.73,10.55,10.54v14.02c0,5.81-4.73,10.54-10.55,10.54ZM22.93,15.65c-3.99,0-7.24,3.25-7.24,7.24v14.02c0,3.99,3.25,7.24,7.24,7.24h14.02c3.99,0,7.24-3.25,7.24-7.24v-14.02c0-3.99-3.25-7.24-7.24-7.24h-14.02Z"/></g></svg>