<?xml version="1.0" encoding="UTF-8"?><svg id="Layer_2" xmlns="http://www.w3.org/2000/svg" viewBox="0 0 59.88 59.88"><defs><style>.cls-1{fill:#ddf861;}.cls-2{fill:#695557;}</style></defs><g id="Layer_1-2"><path class="cls-1" d="M59.88,29.94C59.88,13.4,46.48,0,29.94,0S0,13.4,0,29.94c0,14.94,10.95,27.33,25.26,29.58v-20.92h-7.6v-8.65h7.6v-6.6c0-7.5,4.47-11.65,11.31-11.65,3.28,0,6.7.58,6.7.58v7.37h-3.78c-3.72,0-4.88,2.31-4.88,4.68v5.62h8.3l-1.33,8.65h-6.98v20.92c14.31-2.25,25.26-14.63,25.26-29.58Z"/><path class="cls-2" d="M41.59,38.6l1.33-8.65h-8.3v-5.62c0-2.37,1.16-4.68,4.88-4.68h3.78v-7.37s-3.43-.58-6.7-.58c-6.84,0-11.31,4.14-11.31,11.65v6.6h-7.6v8.65h7.6v20.92c1.52.24,3.09.36,4.68.36s3.15-.12,4.68-.36v-20.92h6.98Z"/></g></svg>