<?xml version="1.0" encoding="UTF-8"?><svg id="Layer_2" xmlns="http://www.w3.org/2000/svg" viewBox="0 0 59.88 59.88"><defs><style>.cls-1{fill:#ddf861;}.cls-2{fill-rule:evenodd;}.cls-2,.cls-3{fill:#695557;}</style></defs><g id="Layer_1-2"><circle class="cls-1" cx="29.94" cy="29.94" r="29.94" transform="translate(-12.29 32.99) rotate(-49.13)"/><path class="cls-3" d="M13.76,46.88l2.5-9.31c-1.41-2.55-2.16-5.41-2.16-8.31,0-9.48,7.71-17.2,17.2-17.2s17.2,7.72,17.2,17.2-7.71,17.2-17.2,17.2c-2.85,0-5.66-.72-8.17-2.08l-9.36,2.51ZM23.59,40.88l.59.35c2.16,1.29,4.63,1.97,7.12,1.97,7.69,0,13.95-6.26,13.95-13.95s-6.26-13.95-13.95-13.95-13.95,6.26-13.95,13.95c0,2.54.71,5.04,2.04,7.23l.36.59-1.39,5.2,5.23-1.4Z"/><path class="cls-2" d="M37.7,31.65c-.71-.42-1.63-.9-2.46-.55-.64.26-1.05,1.26-1.46,1.77-.21.26-.47.3-.79.17-2.4-.96-4.24-2.56-5.57-4.77-.22-.34-.18-.61.09-.93.4-.47.9-1.01,1.01-1.64.11-.63-.19-1.38-.45-1.94-.34-.72-.71-1.75-1.43-2.16-.67-.38-1.54-.17-2.14.32-1.02.83-1.52,2.14-1.5,3.43,0,.37.05.73.14,1.09.21.85.6,1.65,1.05,2.41.33.57.7,1.13,1.09,1.66,1.28,1.74,2.88,3.26,4.73,4.39.92.57,1.92,1.06,2.95,1.4,1.16.38,2.19.78,3.44.54,1.31-.25,2.6-1.06,3.12-2.32.15-.37.23-.79.14-1.18-.18-.81-1.28-1.3-1.94-1.69Z"/></g></svg>